<?xml version="1.0" encoding="UTF-8"?>
<svg width="181px" height="80px" viewBox="0 0 181 80" version="1.1" xmlns="http://www.w3.org/2000/svg" xmlns:xlink="http://www.w3.org/1999/xlink">
    <!-- Generator: Sketch 51.1 (57501) - http://www.bohemiancoding.com/sketch -->
    <title>PAL Network</title>
    <desc>Created with Sketch.</desc>
    <defs>
        <linearGradient x1="50%" y1="0%" x2="50%" y2="100%" id="linearGradient-1">
            <stop stop-color="#00EDD8" offset="0%"></stop>
            <stop stop-color="#00D7AF" offset="100%"></stop>
        </linearGradient>
    </defs>
    <g id="Page-1" stroke="none" stroke-width="1" fill="none" fill-rule="evenodd">
        <g id="Group-3">
            <g id="Group" transform="translate(72.000000, 2.909091)" fill="#506075">
                <path d="M29.3956364,74.3890909 L23.7854545,68.7789091 L23.7854545,74.1818182 L22.2378182,74.1818182 L22.2378182,64.9512727 L27.848,70.5614545 L27.848,65.0894545 L29.3956364,65.0894545 L29.3956364,74.3890909 Z M41.2574545,74.1818182 L35.5090908,74.1818182 L35.5090908,65.0894545 L41.2574545,65.0894545 L41.2574545,66.6509091 L37.0705454,66.6509091 L37.0705454,68.848 L40.2210908,68.848 L40.2210908,70.4094545 L37.0705454,70.4094545 L37.0705454,72.6341818 L41.2574545,72.6341818 L41.2574545,74.1818182 Z M53.906909,65.0894545 L53.906909,66.6509091 L51.170909,66.6509091 L51.170909,74.1818182 L49.6232726,74.1818182 L49.6232726,66.6509091 L46.9010908,66.6509091 L46.9010908,65.0894545 L53.906909,65.0894545 Z M66.6254543,70.0087273 L68.269818,65.0894545 L69.9141816,65.0894545 L66.8050907,74.3890909 L64.4283634,68.9170909 L62.0516362,74.3890909 L58.9149089,65.0894545 L60.5592725,65.0894545 L62.2174543,70.0363636 L64.4283634,64.9512727 L66.6254543,70.0087273 Z M79.0538179,74.2647273 C78.2247228,74.2647273 77.4578214,74.0574566 76.7530906,73.6429091 C76.0483598,73.2283616 75.4887291,72.6664278 75.0741815,71.9570909 C74.659634,71.247754 74.4523634,70.4739436 74.4523634,69.6356364 C74.4523634,68.7973291 74.659634,68.0235187 75.0741815,67.3141818 C75.4887291,66.6048449 76.0483598,66.0429112 76.7530906,65.6283636 C77.4578214,65.2138161 78.2247228,65.0065455 79.0538179,65.0065455 C79.882913,65.0065455 80.6498144,65.2138161 81.3545452,65.6283636 C82.059276,66.0429112 82.6189067,66.6048449 83.0334543,67.3141818 C83.4480018,68.0235187 83.6552724,68.7973291 83.6552724,69.6356364 C83.6552724,70.4739436 83.4480018,71.247754 83.0334543,71.9570909 C82.6189067,72.6664278 82.059276,73.2283616 81.3545452,73.6429091 C80.6498144,74.0574566 79.882913,74.2647273 79.0538179,74.2647273 Z M79.0538179,66.5541818 C78.5010879,66.5541818 77.9921233,66.6923623 77.5269088,66.9687273 C77.0616944,67.2450923 76.6932132,67.6204825 76.4214543,68.0949091 C76.1496953,68.5693357 76.0138179,69.0829063 76.0138179,69.6356364 C76.0138179,70.1883664 76.1496953,70.701937 76.4214543,71.1763636 C76.6932132,71.6507903 77.0616944,72.0261804 77.5269088,72.3025455 C77.9921233,72.5789105 78.5010879,72.7170909 79.0538179,72.7170909 C79.6065479,72.7170909 80.1155125,72.5789105 80.580727,72.3025455 C81.0459414,72.0261804 81.4144226,71.6530933 81.6861815,71.1832727 C81.9579405,70.7134522 82.0938179,70.1975786 82.0938179,69.6356364 C82.0938179,69.0736942 81.9579405,68.5578205 81.6861815,68.088 C81.4144226,67.6181795 81.0459414,67.2450923 80.580727,66.9687273 C80.1155125,66.6923623 79.6065479,66.5541818 79.0538179,66.5541818 Z M93.803636,74.1818182 L90.7498178,70.1745455 L90.7498178,74.1818182 L89.2021815,74.1818182 L89.1883633,65.0894545 L92.5185451,65.0894545 C92.9607291,65.0894545 93.3775735,65.1608478 93.7690906,65.3036364 C94.1606077,65.446425 94.5037558,65.6513926 94.7985451,65.9185455 C95.0933345,66.1764861 95.3190292,66.4735741 95.475636,66.8098182 C95.6322429,67.1460623 95.7105451,67.4984224 95.7105451,67.8669091 C95.7105451,68.4288513 95.5309105,68.9447249 95.171636,69.4145455 C94.8584223,69.8106686 94.4715171,70.0962415 94.0109087,70.2712727 C93.8450897,70.3357579 93.6539401,70.3910301 93.4374542,70.4370909 C93.2209683,70.4831517 93.0620608,70.5061818 92.9607269,70.5061818 L95.7243633,74.1818182 L93.803636,74.1818182 Z M90.7498178,66.6509091 L90.7498178,69.0967273 L92.1039997,69.0967273 C92.6475175,69.0967273 93.0804829,69.023031 93.4029087,68.8756364 C93.6055764,68.7927269 93.780605,68.6591524 93.9279997,68.4749091 C94.0753943,68.2906657 94.1490906,68.0880011 94.1490906,67.8669091 C94.1490906,67.5629076 94.0201222,67.2957587 93.7621815,67.0654545 C93.45818,66.7890895 93.0436386,66.6509091 92.5185451,66.6509091 L90.7498178,66.6509091 Z M108.36,74.1818182 L106.439272,74.1818182 L103.965818,70.8101818 L101.395636,74.3890909 L101.395636,65.0894545 L102.943272,65.0894545 L102.943272,69.5389091 L106.14909,65.0894545 L108.056,65.0894545 L104.905454,69.4698182 L108.36,74.1818182 Z" id="NETWORK" stroke="#506075" stroke-width="0.5"></path>
                <path d="M25.1569602,57.4517045 C23.0802453,57.4517045 21.2208889,57.1076029 19.5788352,56.4193892 C17.9367816,55.7311755 16.3068263,54.4936169 14.6889205,52.7066761 C14.6889205,55.8136814 14.6889205,57.6006132 14.6889205,58.0674716 L14.6889205,74.5482955 L0.526278409,74.5482955 L0.526278409,15.6882102 L14.0369318,15.6882102 L14.0369318,20.9041193 L14.6889205,20.9041193 C17.3210359,16.9438722 20.9552325,14.9637784 25.5916193,14.9637784 C30.1314147,14.9637784 33.6931689,16.8472823 36.2769886,20.6143466 C38.8608084,24.3814109 40.1526989,29.5489728 40.1526989,36.1171875 C40.1526989,42.7336979 38.8064765,47.9435179 36.1139915,51.746804 C33.4215064,55.55009 29.7691992,57.4517045 25.1569602,57.4517045 Z M20.4119318,26.0838068 C18.3352169,26.0838068 16.8803309,26.826342 16.0472301,28.3114347 C15.2141294,29.7965273 14.761364,31.9999854 14.6889205,34.921875 L14.6889205,36.0447443 C14.6889205,39.5703301 15.1597964,42.1178899 16.1015625,43.6875 C17.0433286,45.2571101 18.5283989,46.0419034 20.5568182,46.0419034 C22.3679068,46.0419034 23.6839448,45.263147 24.5049716,43.7056108 C25.3259984,42.1480746 25.7365057,39.5703305 25.7365057,35.9723011 C25.7365057,32.4467153 25.3259984,29.9172662 24.5049716,28.3838778 C23.6839448,26.8504895 22.3196118,26.0838068 20.4119318,26.0838068 Z M72.28125,56.7272727 L72.28125,51.2940341 L71.9914773,51.2940341 C70.0837973,53.6605232 68.1399247,55.2784047 66.1598011,56.1477273 C64.1796776,57.0170498 61.6200441,57.4517045 58.4808239,57.4517045 C54.6171682,57.4517045 51.574585,56.2926252 49.352983,53.9744318 C47.1313809,51.6562384 46.0205966,48.3963278 46.0205966,44.1946023 C46.0205966,39.8238418 47.5418882,36.5699681 50.584517,34.4328835 C53.6271459,32.295799 58.0340621,31.0944616 63.8053977,30.8288352 L70.6512784,30.6115057 L70.6512784,30.0319602 C70.6512784,26.6512615 68.9851019,24.9609375 65.6526989,24.9609375 C62.6583657,24.9609375 58.8551367,25.9751319 54.2428977,28.0035511 L50.149858,18.6583807 C54.9311319,16.1953002 60.9680033,14.9637784 68.2606534,14.9637784 C73.5248843,14.9637784 77.5997725,16.2677426 80.4854403,18.8757102 C83.3711082,21.4836778 84.8139205,25.1299482 84.8139205,29.8146307 L84.8139205,56.7272727 L72.28125,56.7272727 Z M64.493608,47.4545455 C66.2081052,47.4545455 67.6750649,46.911227 68.8945312,45.8245739 C70.1139976,44.7379207 70.7237216,43.3252928 70.7237216,41.5866477 L70.7237216,38.3991477 L67.4637784,38.5440341 C62.8032437,38.713069 60.4730114,40.4275405 60.4730114,43.6875 C60.4730114,46.1988762 61.8131968,47.4545455 64.493608,47.4545455 Z M108.611506,56.7272727 L94.4488636,56.7272727 L94.4488636,0.366477273 L108.611506,0.366477273 L108.611506,56.7272727 Z" id="pal"></path>
            </g>
            <path d="M20.0552444,44.1724602 C19.6170963,44.4285235 19.2566272,45.0559013 19.2550864,45.5664748 C19.2452,48.8443701 19.2633037,52.0912039 19.2660642,55.3551215 C19.2678617,57.5093019 17.7535062,58.3942314 15.8999951,57.3218327 C9.65678519,53.7097027 4.72911111,50.8449902 1.11690864,48.7278247 C0.502345679,48.3675759 0,47.486788 0,46.7701731 L0,33.3860272 C0.199654321,33.5014725 0.399308642,33.6167884 0.59902716,33.7321042 L0,33.3820151 L0,12.1741221 C0,11.4565365 0.503950617,10.5747778 1.11986173,10.2147879 L18.1322074,0.271739679 C18.7520988,-0.090579893 19.7664198,-0.090579893 20.3863111,0.271739679 L37.3986568,10.2147879 C38.0145679,10.5748426 38.5185185,11.4565365 38.5185185,12.1741221 L38.5185185,32.0773023 C38.5185185,32.7950173 38.0145679,33.6767112 37.3985926,34.0366365 C31.6174765,37.4152875 25.8363605,40.7938738 20.0552444,44.1724602 Z M42.9671358,34.4335252 C42.9770222,31.1556299 42.9589185,27.9087961 42.956158,24.6448785 C42.9543605,22.4906981 44.468716,21.6057686 46.3222272,22.6781673 C52.565437,26.2902973 57.4931111,29.1550098 61.1053136,31.2721753 C61.7198765,31.6324241 62.2222222,32.513212 62.2222222,33.2298269 L62.2222222,46.6139728 C62.0225679,46.4985275 61.8229136,46.3832116 61.6231951,46.2678958 L62.2222222,46.6179849 L62.2222222,67.8258779 C62.2222222,68.5434635 61.7182716,69.4252222 61.1023605,69.7852121 L44.0900148,79.7282603 C43.4701235,80.0905799 42.4558025,80.0905799 41.8359111,79.7282603 L24.8235654,69.7852121 C24.2076543,69.4251574 23.7037037,68.5434635 23.7037037,67.8258779 L23.7037037,47.9226977 C23.7037037,47.2049827 24.2076543,46.3232888 24.8236296,45.9633635 C30.6047457,42.5847125 36.3858617,39.2061262 42.1669778,35.8275398 C42.6051259,35.5714765 42.9655951,34.9440987 42.9671358,34.4335252 Z" id="Combined-Shape-Copy-10" fill="url(#linearGradient-1)"></path>
        </g>
    </g>
</svg>